<svg width="90" height="90" viewBox="0 0 90 90" fill="none" xmlns="http://www.w3.org/2000/svg">
<path d="M86.0121 48.2981H76.9561C76.7579 48.2981 76.5617 48.3371 76.3786 48.4129C76.1955 48.4888 76.0291 48.5999 75.889 48.7401C75.7488 48.8802 75.6377 49.0466 75.5618 49.2297C75.486 49.4128 75.4469 49.609 75.4469 49.8072V52.0101C71.6773 50.9642 68.2424 48.9607 65.4762 46.1945C62.7099 43.4283 60.7065 39.9934 59.6606 36.2237H61.8635C62.2637 36.2237 62.6476 36.0647 62.9306 35.7817C63.2136 35.4987 63.3726 35.1148 63.3726 34.7146V25.6581C63.3726 25.2578 63.2136 24.874 62.9306 24.5909C62.6476 24.3079 62.2637 24.1489 61.8635 24.1489H58.1272C57.273 20.6334 55.6869 17.3377 53.4725 14.4769C51.258 11.6161 48.465 9.25457 45.2758 7.54659H51.4907C51.858 8.96932 52.7317 10.2092 53.9479 11.0339C55.164 11.8586 56.6392 12.2114 58.0969 12.0262C59.5545 11.841 60.8947 11.1306 61.866 10.0281C62.8374 8.92552 63.3733 7.50657 63.3733 6.03718C63.3733 4.56778 62.8374 3.14883 61.866 2.04629C60.8947 0.943744 59.5545 0.233307 58.0969 0.0481409C56.6392 -0.137025 55.164 0.215794 53.9479 1.04046C52.7317 1.86513 51.858 3.10503 51.4907 4.52776H39.2235V1.50943C39.2233 1.10926 39.0643 0.725532 38.7813 0.442618C38.4983 0.159704 38.1145 0.000772202 37.7143 0.000772225H28.6583C28.2581 0.000772225 27.8742 0.159773 27.5912 0.442796C27.3082 0.725819 27.1492 1.10968 27.1492 1.50994V4.52877H14.8835C14.5161 3.10604 13.6424 1.86614 12.4263 1.04147C11.2101 0.216803 9.73495 -0.136015 8.27727 0.0491511C6.81959 0.234317 5.47948 0.944753 4.50813 2.0473C3.53678 3.14984 3.00088 4.56879 3.00088 6.03819C3.00088 7.50758 3.53678 8.92653 4.50813 10.0291C5.47948 11.1316 6.81959 11.8421 8.27727 12.0272C9.73495 12.2124 11.2101 11.8596 12.4263 11.0349C13.6424 10.2102 14.5161 8.97033 14.8835 7.5476H21.0984C17.9093 9.25547 15.1163 11.6168 12.9019 14.4774C10.6874 17.3381 9.10125 20.6336 8.24698 24.1489H4.51068C4.31237 24.1487 4.11596 24.1876 3.93268 24.2634C3.74941 24.3391 3.58286 24.4502 3.44256 24.5904C3.30226 24.7306 3.19096 24.897 3.11502 25.0802C3.03909 25.2634 3 25.4598 3 25.6581V34.7141C3 35.1143 3.159 35.4982 3.44202 35.7812C3.72505 36.0642 4.10891 36.2232 4.50916 36.2232H13.5652C13.9654 36.2232 14.3493 36.0642 14.6323 35.7812C14.9153 35.4982 15.0743 35.1143 15.0743 34.7141V25.6581C15.0743 25.2578 14.9153 24.874 14.6323 24.5909C14.3493 24.3079 13.9654 24.1489 13.5652 24.1489H11.3623C12.4082 20.3792 14.4118 16.9443 17.1781 14.178C19.9444 11.4118 23.3794 9.40836 27.1492 8.36252V10.5654C27.1492 10.9657 27.3082 11.3495 27.5912 11.6326C27.8742 11.9156 28.2581 12.0746 28.6583 12.0746H37.7143C38.1146 12.0746 38.4984 11.9156 38.7814 11.6326C39.0645 11.3495 39.2235 10.9657 39.2235 10.5654V8.36252C42.9932 9.40836 46.4282 11.4118 49.1945 14.178C51.9609 16.9443 53.9644 20.3792 55.0104 24.1489H52.8075C52.4072 24.1489 52.0233 24.3079 51.7403 24.5909C51.4573 24.874 51.2983 25.2578 51.2983 25.6581V34.7141C51.2983 35.1143 51.4573 35.4982 51.7403 35.7812C52.0233 36.0642 52.4072 36.2232 52.8075 36.2232H56.5438C57.6545 40.806 60.0061 44.9944 63.3404 48.3287C66.6748 51.6631 70.8631 54.0147 75.4459 55.1254V58.8617C75.4459 59.262 75.6049 59.6458 75.888 59.9288C76.171 60.2119 76.5548 60.3709 76.9551 60.3709H86.0111C86.4113 60.3709 86.7952 60.2119 87.0782 59.9288C87.3613 59.6458 87.5202 59.262 87.5202 58.8617V49.8072C87.5202 49.4071 87.3614 49.0234 87.0786 48.7404C86.7958 48.4574 86.4122 48.2983 86.0121 48.2981ZM57.3334 3.01859C57.9305 3.01859 58.5142 3.19565 59.0106 3.52736C59.5071 3.85907 59.894 4.33055 60.1225 4.88217C60.351 5.43379 60.4107 6.04078 60.2943 6.62637C60.1778 7.21197 59.8903 7.74987 59.4681 8.17207C59.0459 8.59426 58.508 8.88177 57.9224 8.99825C57.3368 9.11474 56.7298 9.05496 56.1782 8.82647C55.6266 8.59798 55.1551 8.21105 54.8234 7.7146C54.4917 7.21816 54.3146 6.6345 54.3146 6.03743C54.3146 5.64086 54.3927 5.24818 54.5445 4.88182C54.6964 4.51546 54.9188 4.1826 55.1993 3.90226C55.4798 3.62191 55.8128 3.39958 56.1792 3.24796C56.5457 3.09633 56.9384 3.0184 57.335 3.01859H57.3334ZM12.056 33.2049H6.01883V27.1677H12.056V33.2049ZM9.03716 9.05576C8.44009 9.05576 7.85643 8.87871 7.35999 8.54699C6.86354 8.21528 6.47661 7.7438 6.24812 7.19218C6.01963 6.64056 5.95985 6.03358 6.07633 5.44798C6.19282 4.86238 6.48033 4.32448 6.90252 3.90229C7.32472 3.48009 7.86262 3.19258 8.44822 3.0761C9.03381 2.95961 9.6408 3.0194 10.1924 3.24788C10.744 3.47637 11.2155 3.86331 11.5472 4.35975C11.8789 4.85619 12.056 5.43985 12.056 6.03692C12.056 6.83757 11.7379 7.60542 11.1718 8.17156C10.6057 8.7377 9.83781 9.05576 9.03716 9.05576ZM36.2046 9.05576H30.1675V3.01859H36.2046V9.05576ZM54.3166 27.1672H60.3538V33.2049H54.3166V27.1672ZM84.5029 57.3535H78.4658V51.3164H84.5029V57.3535Z" fill="white"/>
<path d="M55.3523 46.113C55.4338 45.929 55.4775 45.7305 55.4811 45.5293C55.4847 45.3281 55.448 45.1282 55.3732 44.9414C55.2984 44.7546 55.187 44.5846 55.0456 44.4415C54.9041 44.2984 54.7355 44.185 54.5495 44.108L46.1827 40.6423C45.9914 40.5631 45.7858 40.524 45.5788 40.5276C45.3717 40.5312 45.1676 40.5773 44.9792 40.6632C44.7907 40.749 44.622 40.8728 44.4834 41.0267C44.3448 41.1806 44.2394 41.3613 44.1737 41.5577C42.7453 45.8282 38.6334 49.616 31.6015 53.1377C31.3891 53.2442 31.2047 53.3994 31.0636 53.5905C30.9224 53.7817 30.8284 54.0035 30.7892 54.2379L27.4921 73.9293L24.0926 82.136C24.0167 82.3191 23.9776 82.5154 23.9775 82.7136C23.9775 82.9118 24.0165 83.1081 24.0923 83.2912C24.1681 83.4743 24.2793 83.6408 24.4194 83.7809C24.5595 83.9211 24.7259 84.0323 24.909 84.1082L38.853 89.8848C39.0362 89.9607 39.2325 89.9997 39.4308 89.9996C39.6291 89.9996 39.8254 89.9605 40.0086 89.8845C40.1917 89.8085 40.3581 89.6972 40.4982 89.5569C40.6383 89.4166 40.7494 89.2501 40.8252 89.0669L44.2267 80.8621L55.8194 64.6042C55.9592 64.4081 56.0501 64.1814 56.0845 63.943C56.1188 63.7046 56.0956 63.4614 56.0168 63.2339C53.5493 56.1086 53.3383 50.6688 55.3523 46.113ZM38.6162 86.5171L27.4613 81.8947L29.7713 76.318L40.9262 80.9389L38.6162 86.5171ZM42.3672 78.2684L30.6417 73.4112L33.6434 55.4871C40.2486 52.0724 44.4565 48.3028 46.4402 44.0161L47.8141 44.5851L42.4924 57.3593C41.4203 57.2967 40.3606 57.6153 39.5008 58.2588C38.6411 58.9023 38.0367 59.8292 37.7945 60.8754C37.5524 61.9217 37.6882 63.0199 38.1778 63.9757C38.6675 64.9315 39.4794 65.6832 40.47 66.098C41.4606 66.5127 42.566 66.5637 43.5905 66.2418C44.6151 65.92 45.4928 65.2461 46.0683 64.3395C46.6438 63.4328 46.8801 62.3518 46.7352 61.2877C46.5904 60.2236 46.0738 59.245 45.2769 58.5251L50.6027 45.7424L52.0255 46.3316C50.3623 51.1282 50.6527 56.6408 52.9136 63.4833L42.3672 78.2684ZM43.6375 62.4568C43.5039 62.7794 43.2625 63.0456 42.9546 63.2102C42.6467 63.3748 42.2912 63.4275 41.9488 63.3593C41.6063 63.2912 41.2981 63.1065 41.0766 62.8366C40.8551 62.5667 40.7341 62.2283 40.7341 61.8792C40.7341 61.53 40.8551 61.1917 41.0766 60.9218C41.2981 60.6519 41.6063 60.4672 41.9488 60.399C42.2912 60.3309 42.6467 60.3836 42.9546 60.5482C43.2625 60.7128 43.5039 60.979 43.6375 61.3016C43.7134 61.4847 43.7524 61.681 43.7524 61.8792C43.7524 62.0774 43.7134 62.2737 43.6375 62.4568Z" fill="white"/>
</svg>
