<svg width="90" height="90" viewBox="0 0 90 90" fill="none" xmlns="http://www.w3.org/2000/svg">
<path d="M44.8424 11.4366C45.3119 11.4366 45.7621 11.2501 46.0941 10.9182C46.426 10.5862 46.6125 10.136 46.6125 9.66653V1.77037C46.6125 1.30084 46.426 0.850539 46.094 0.51853C45.762 0.186521 45.3117 0 44.8421 0C44.3726 0 43.9223 0.186521 43.5903 0.51853C43.2583 0.850539 43.0718 1.30084 43.0718 1.77037V9.66653C43.0719 10.136 43.2585 10.5863 43.5906 10.9182C43.9226 11.2502 44.3729 11.4366 44.8424 11.4366Z" fill="white"/>
<path d="M88.1161 60.82L84.9886 57.7016C84.083 56.8017 82.9112 56.2182 81.6473 56.0379C80.3835 55.8576 79.0952 56.09 77.974 56.7007L72.0808 50.8128L72.3677 50.5259C73.516 49.3742 74.1607 47.8142 74.1607 46.1879C74.1607 44.5616 73.516 43.0016 72.3677 41.8499C71.5264 41.004 70.4547 40.4245 69.2862 40.1836C69.4484 39.6238 69.5305 39.0439 69.5303 38.4611C69.5312 37.0523 69.0468 35.6862 68.1586 34.5926C67.2704 33.499 66.0326 32.7447 64.6536 32.4566C64.8157 31.8968 64.8979 31.3169 64.8977 30.7341C64.899 29.3255 64.4148 27.9595 63.5266 26.8663C62.6384 25.773 61.4005 25.0193 60.0214 24.7323C60.3061 23.764 60.3473 22.7405 60.1412 21.7526C59.935 20.7646 59.4881 19.8429 58.8399 19.0693C58.1918 18.2957 57.3626 17.6942 56.4261 17.3183C55.4895 16.9423 54.4746 16.8035 53.4715 16.9142L41.7932 14.7036C40.0123 14.3659 37.7878 14.1421 36.3838 15.423C36.2891 15.51 36.1997 15.6026 36.1162 15.7003C35.016 15.2979 33.8238 15.2178 32.6797 15.4695C31.5356 15.7211 30.487 16.294 29.6572 17.1209C29.0859 17.6896 28.6332 18.366 28.3253 19.111C28.0174 19.856 27.8605 20.6547 27.8636 21.4607C27.8632 22.0435 27.9452 22.6234 28.1071 23.1832C26.7295 23.4716 25.493 24.2251 24.6053 25.3173C23.7176 26.4095 23.2327 27.7739 23.2319 29.1813C23.2311 29.7657 23.3133 30.3473 23.476 30.9086C22.4878 31.116 21.566 31.564 20.7923 32.2128C20.0186 32.8617 19.4169 33.6914 19.0406 34.6284C18.6642 35.5654 18.5248 36.5807 18.6348 37.5845C18.7447 38.5883 19.1006 39.5494 19.6709 40.3827C18.6839 40.719 17.7989 41.3014 17.0996 42.0747C16.4002 42.8481 15.9095 43.787 15.6738 44.8027C15.4381 45.8184 15.4651 46.8774 15.7524 47.8797C16.0397 48.8821 16.5777 49.7946 17.3157 50.5312L17.6015 50.816L11.7083 56.6985C10.6081 56.1806 9.37504 56.0141 8.17686 56.2218C6.97868 56.4294 5.87352 57.001 5.0117 57.859L1.88257 60.9806C0.777656 62.0891 0.157227 63.5905 0.157227 65.1556C0.157227 66.7208 0.777656 68.2221 1.88257 69.3306L5.78997 73.2311C5.95445 73.3954 6.14968 73.5257 6.36452 73.6145C6.57936 73.7034 6.8096 73.7491 7.04208 73.749C7.27457 73.7488 7.50476 73.7029 7.7195 73.6138C7.93425 73.5247 8.12934 73.3942 8.29365 73.2297C8.45795 73.0653 8.58825 72.87 8.67711 72.6552C8.76596 72.4404 8.81163 72.2101 8.81151 71.9776C8.81138 71.7451 8.76547 71.515 8.67638 71.3002C8.5873 71.0855 8.45679 70.8904 8.29231 70.7261L4.38491 66.8256C3.94494 66.3812 3.69815 65.781 3.69815 65.1556C3.69815 64.5302 3.94494 63.9301 4.38491 63.4856L7.51457 60.365C7.88808 59.9936 8.37468 59.7572 8.89751 59.6931C9.42035 59.6291 9.94963 59.741 10.4018 60.0112C10.4668 60.1092 10.5414 60.2004 10.6244 60.2837C10.7717 60.4307 10.9439 60.5505 11.1329 60.6375L29.0791 78.5575C29.2512 78.9377 29.5539 79.2437 29.9323 79.4198C30.3285 79.8708 30.5387 80.4554 30.5204 81.0554C30.5021 81.6554 30.2567 82.2261 29.8338 82.6522L26.7085 85.7744C26.2635 86.2159 25.6621 86.4639 25.0353 86.4644C24.4084 86.4649 23.8066 86.2179 23.3609 85.777L19.4535 81.8697C19.2892 81.7053 19.094 81.5749 18.8793 81.4859C18.6645 81.397 18.4343 81.3512 18.2018 81.3512C17.9694 81.3512 17.7392 81.397 17.5244 81.4859C17.3097 81.5749 17.1145 81.7053 16.9501 81.8697C16.7858 82.034 16.6554 82.2292 16.5664 82.4439C16.4775 82.6587 16.4317 82.8889 16.4317 83.1213C16.4317 83.3538 16.4775 83.584 16.5664 83.7988C16.6554 84.0135 16.7858 84.2087 16.9501 84.3731L20.8575 88.2804C21.9678 89.3821 23.4685 90.0003 25.0326 90.0003C26.5966 90.0003 28.0973 89.3821 29.2076 88.2804L32.3356 85.1561C33.2785 84.2098 33.8734 82.9723 34.0239 81.645C34.1743 80.3176 33.8713 78.9784 33.1642 77.845L39.7977 71.2196L39.8191 71.1982C40.5787 70.4129 42.694 70.5601 44.7392 70.702C46.2873 70.8546 47.846 70.865 49.396 70.733L56.66 77.9885C56.0492 79.1088 55.8169 80.3965 55.9979 81.6596C56.1789 82.9227 56.7634 84.0934 57.6641 84.9972L60.7927 88.1215C61.902 89.2251 63.403 89.8446 64.9678 89.8446C66.5325 89.8446 68.0336 89.2251 69.1428 88.1215L88.1172 69.1701C89.2223 68.0616 89.8428 66.5602 89.8428 64.995C89.8428 63.4299 89.2223 61.9285 88.1172 60.82H88.1161ZM41.1359 18.1823L48.8147 19.636L44.2179 24.2307C43.2027 23.7082 42.2738 23.0331 41.4634 22.2288C40 20.8291 38.9531 19.2127 38.8578 18.2042C38.852 18.1462 38.8495 18.088 38.8503 18.0297C39.615 17.9338 40.391 17.9862 41.1359 18.1839V18.1823ZM32.1606 19.6275C32.5897 19.2005 33.1537 18.9359 33.7563 18.8787C34.3589 18.8216 34.9626 18.9756 35.4642 19.3144C36.0386 21.723 38.0924 23.9047 39.0168 24.789C39.7014 25.4441 41.8991 27.4091 44.1173 27.947C44.4873 28.4801 44.6445 29.1325 44.5578 29.7756C44.4711 30.4188 44.1469 31.0062 43.6489 31.4224C43.1509 31.8385 42.5152 32.0532 41.8668 32.0242C41.2185 31.9952 40.6045 31.7246 40.1456 31.2656L32.1606 23.2951C31.677 22.8069 31.4057 22.1476 31.4057 21.4605C31.4057 20.7733 31.677 20.114 32.1606 19.6259V19.6275ZM27.5349 27.3529C28.024 26.8674 28.6852 26.5949 29.3743 26.5949C30.0635 26.5949 30.7247 26.8674 31.2137 27.3529L37.6427 33.769C38.1207 34.2594 38.386 34.9183 38.3814 35.6029C38.3767 36.2876 38.1023 36.9429 37.6177 37.4266C37.1332 37.9103 36.4775 38.1835 35.7928 38.187C35.1081 38.1905 34.4496 37.924 33.9602 37.4452L29.0829 32.569L29.0593 32.5465L27.5333 31.0216C27.047 30.5345 26.7739 29.8744 26.7739 29.1861C26.7739 28.4979 27.047 27.8378 27.5333 27.3507L27.5349 27.3529ZM22.9001 35.074C23.388 34.5925 24.0453 34.3215 24.7308 34.3192C25.4163 34.3169 26.0754 34.5835 26.5666 35.0617L31.4589 39.9513C31.9356 40.4415 32.1999 41.0999 32.1945 41.7837C32.189 42.4675 31.9143 43.1216 31.4298 43.6042C30.9453 44.0868 30.2902 44.3589 29.6063 44.3617C28.9225 44.3644 28.2652 44.0976 27.7768 43.6189L26.0035 41.8477L22.899 38.7491C22.4134 38.261 22.1408 37.6006 22.1408 36.9121C22.1408 36.2236 22.4134 35.5631 22.899 35.0751L22.9001 35.074ZM19.817 44.3527C20.307 43.8672 20.969 43.5948 21.6588 43.5948C22.3487 43.5948 23.0106 43.8672 23.5006 44.3527L25.2766 46.1266C25.7628 46.615 26.035 47.2765 26.0334 47.9656C26.0318 48.6548 25.7565 49.315 25.2681 49.8012C24.7797 50.2873 24.1181 50.5595 23.429 50.5579C22.7399 50.5563 22.0797 50.281 21.5935 49.7926L21.3714 49.571L21.3634 49.5619L21.3532 49.5528L19.8186 48.0273C19.3327 47.54 19.0598 46.8798 19.0598 46.1916C19.0598 45.5034 19.3327 44.8433 19.8186 44.356L19.817 44.3527ZM55.8935 64.4726C55.7291 64.3082 55.534 64.1778 55.3192 64.0889C55.1045 63.9999 54.8743 63.9541 54.6418 63.9541C54.4093 63.9541 54.1791 63.9999 53.9644 64.0889C53.7496 64.1778 53.5545 64.3082 53.3901 64.4726L51.8148 66.0458C50.3161 67.5445 47.6066 67.3539 44.9838 67.1698C42.1357 66.9718 39.1913 66.7678 37.2852 68.7221L30.7652 75.2383L14.459 58.9557L20.2318 53.1958C21.1624 53.7655 22.2279 54.0769 23.3188 54.098C24.4097 54.1191 25.4865 53.8491 26.4384 53.3158C27.3903 52.7824 28.1828 52.0051 28.7345 51.0637C29.2861 50.1223 29.5769 49.051 29.5769 47.9599C29.5769 47.9443 29.5769 47.9293 29.5769 47.9144H29.6229C30.4282 47.9153 31.2258 47.7575 31.97 47.4498C32.7142 47.1422 33.3904 46.6908 33.9599 46.1215C34.5295 45.5521 34.9811 44.8761 35.289 44.132C35.5969 43.3879 35.7551 42.5904 35.7544 41.7851C35.7544 41.7696 35.7544 41.7546 35.7544 41.7396H35.8009C36.611 41.7423 37.4135 41.5841 38.162 41.2742C38.9104 40.9643 39.5898 40.5087 40.1608 39.9341C40.7317 39.3594 41.1829 38.6771 41.488 37.9267C41.7931 37.1763 41.9462 36.3727 41.9382 35.5627H41.9858C43.0754 35.5617 44.1451 35.2709 45.0851 34.72C46.0252 34.1691 46.8017 33.378 47.3351 32.428C47.8685 31.4779 48.1395 30.403 48.1203 29.3136C48.1012 28.2242 47.7925 27.1596 47.226 26.2288L52.2837 21.1733C52.6469 20.8113 53.1092 20.5649 53.6122 20.4652C53.6658 20.4593 53.7193 20.4512 53.7685 20.4411C54.3078 20.3634 54.8578 20.4575 55.3406 20.71C55.8234 20.9625 56.2145 21.3606 56.4583 21.8478C56.7022 22.3351 56.7864 22.8867 56.6992 23.4245C56.6119 23.9623 56.3576 24.459 55.9722 24.8441L54.4317 26.3782L54.4162 26.3932L52.6418 28.1643C52.4773 28.3286 52.3468 28.5237 52.2577 28.7384C52.1686 28.9531 52.1227 29.1832 52.1225 29.4157C52.1224 29.6482 52.168 29.8784 52.2568 30.0932C52.3457 30.308 52.4759 30.5033 52.6402 30.6678C52.8045 30.8322 52.9995 30.9627 53.2142 31.0518C53.429 31.1409 53.6591 31.1869 53.8916 31.187C54.124 31.1872 54.3543 31.1415 54.5691 31.0527C54.7839 30.9639 54.9791 30.8336 55.1436 30.6694L56.69 29.1251L56.9239 28.8923C57.4135 28.4086 58.0745 28.1381 58.7628 28.1398C59.451 28.1415 60.1107 28.4152 60.5979 28.9014C61.0834 29.3889 61.3556 30.049 61.3549 30.737C61.3542 31.425 61.0806 32.0846 60.5942 32.5711L59.0451 34.1234L57.2713 35.8897C56.9386 36.2211 56.7512 36.671 56.7502 37.1405C56.7492 37.6101 56.9348 38.0607 57.2662 38.3934C57.5975 38.7261 58.0474 38.9135 58.517 38.9145C58.9865 38.9154 59.4372 38.7298 59.7699 38.3985L61.5539 36.6263C62.0408 36.1386 62.7015 35.8644 63.3906 35.8639C64.0797 35.8634 64.7408 36.1367 65.2284 36.6236C65.7161 37.1105 65.9903 37.7712 65.9908 38.4603C65.9913 39.1494 65.718 39.8105 65.2311 40.2981L62.1427 43.3877C61.9783 43.5521 61.848 43.7472 61.7591 43.962C61.6701 44.1768 61.6244 44.407 61.6245 44.6395C61.6245 44.8719 61.6703 45.1021 61.7593 45.3169C61.8484 45.5316 61.9788 45.7267 62.1432 45.8911C62.3076 46.0554 62.5028 46.1858 62.7176 46.2747C62.9324 46.3636 63.1626 46.4093 63.395 46.4093C63.6275 46.4092 63.8577 46.3634 64.0724 46.2744C64.2872 46.1854 64.4823 46.055 64.6466 45.8905L66.1603 44.3763C66.1689 44.3683 66.178 44.3608 66.1871 44.3522C66.4282 44.1107 66.7144 43.9191 67.0295 43.7882C67.3447 43.6574 67.6825 43.5899 68.0237 43.5896C68.3649 43.5893 68.7029 43.6562 69.0182 43.7865C69.3336 43.9168 69.6202 44.1079 69.8616 44.349C70.1031 44.5901 70.2948 44.8763 70.4256 45.1915C70.5565 45.5066 70.624 45.8444 70.6243 46.1856C70.6246 46.5268 70.5577 46.8647 70.4274 47.1801C70.2971 47.4955 70.1059 47.7821 69.8649 48.0236L68.326 49.5608L65.8831 52.0005C65.7186 52.1648 65.5881 52.3599 65.499 52.5747C65.4099 52.7894 65.364 53.0196 65.3639 53.2521C65.3637 53.4846 65.4094 53.7148 65.4983 53.9297C65.5871 54.1445 65.7174 54.3397 65.8817 54.5042C66.046 54.6687 66.2411 54.7992 66.4559 54.8883C66.6706 54.9774 66.9008 55.0233 67.1333 55.0234C67.3658 55.0235 67.596 54.9779 67.8109 54.889C68.0257 54.8002 68.2209 54.6699 68.3854 54.5056L69.5801 53.3119L75.3074 59.0317L59.0028 75.3165L53.161 69.4821C53.581 69.2128 53.9707 68.8991 54.3236 68.5465L55.8978 66.9744C56.0622 66.8101 56.1927 66.615 56.2817 66.4002C56.3707 66.1854 56.4165 65.9552 56.4165 65.7227C56.4165 65.4902 56.3707 65.26 56.2817 65.0453C56.1927 64.8305 56.0622 64.6354 55.8978 64.471L55.8935 64.4726ZM85.6149 66.6672L66.6388 85.617C66.1934 86.0575 65.5923 86.3045 64.9659 86.3045C64.3395 86.3045 63.7383 86.0575 63.2929 85.617L60.1643 82.4927C59.724 82.0492 59.4768 81.4495 59.4768 80.8245C59.4768 80.1995 59.724 79.5999 60.1643 79.1564L79.1388 60.205C79.5842 59.7641 80.1857 59.5167 80.8125 59.5167C81.4393 59.5167 82.0408 59.7641 82.4863 60.205L85.6138 63.3234C86.0542 63.7679 86.3013 64.3683 86.3013 64.994C86.3013 65.6197 86.0542 66.2201 85.6138 66.6645L85.6149 66.6672Z" fill="white"/>
<path d="M21.3354 9.94394C21.6678 10.2756 22.1182 10.4617 22.5878 10.4613C22.8203 10.461 23.0504 10.415 23.2651 10.3259C23.4798 10.2367 23.6749 10.1061 23.8391 9.94153C24.0033 9.77698 24.1336 9.58169 24.2223 9.36681C24.3111 9.15194 24.3567 8.92168 24.3564 8.68919C24.3562 8.45671 24.3102 8.22654 24.221 8.01183C24.1318 7.79713 24.0013 7.60209 23.8367 7.43785L17.3857 0.999747C17.2212 0.835511 17.0259 0.705295 16.811 0.616532C16.5962 0.527769 16.3659 0.482199 16.1334 0.482423C15.9009 0.482646 15.6708 0.52866 15.4561 0.617836C15.2413 0.707012 15.0463 0.837604 14.8821 1.00216C14.7178 1.16671 14.5876 1.362 14.4989 1.57687C14.4101 1.79175 14.3645 2.02201 14.3647 2.25449C14.365 2.48698 14.411 2.71715 14.5002 2.93185C14.5893 3.14656 14.7199 3.3416 14.8845 3.50583L21.3354 9.94394Z" fill="white"/>
<path d="M67.0996 10.4615C67.3319 10.4618 67.562 10.4161 67.7766 10.3273C67.9913 10.2385 68.1863 10.1082 68.3505 9.94394L74.7966 3.5053C74.9611 3.34099 75.0916 3.1459 75.1807 2.93115C75.2698 2.71641 75.3157 2.48622 75.3158 2.25374C75.316 2.02125 75.2703 1.79101 75.1814 1.57617C75.0926 1.36134 74.9623 1.1661 74.798 1.00162C74.6337 0.837138 74.4386 0.70663 74.2238 0.617545C74.0091 0.528461 73.7789 0.482546 73.5464 0.482422C73.3139 0.482298 73.0837 0.527967 72.8688 0.616821C72.654 0.705676 72.4588 0.835976 72.2943 1.00028L65.8482 7.43892C65.6004 7.68639 65.4315 8.00179 65.363 8.34524C65.2945 8.68868 65.3295 9.04472 65.4634 9.36831C65.5973 9.6919 65.8242 9.9685 66.1154 10.1631C66.4065 10.3577 66.7489 10.4616 67.0991 10.4615H67.0996Z" fill="white"/>
<path d="M11.0418 76.1504C10.8788 76.3162 10.7501 76.5124 10.663 76.728C10.5758 76.9435 10.532 77.1741 10.534 77.4065C10.536 77.639 10.5837 77.8688 10.6746 78.0828C10.7654 78.2968 10.8974 78.4909 11.0632 78.6538L11.0686 78.6586C11.319 78.9028 11.6362 79.0673 11.9801 79.1314C12.324 79.1954 12.6791 79.1562 13.0007 79.0185C13.3223 78.8809 13.5959 78.6511 13.7869 78.3581C13.978 78.0651 14.078 77.7221 14.0743 77.3723C14.0705 77.0225 13.9632 76.6817 13.766 76.3929C13.5687 76.104 13.2903 75.8801 12.9658 75.7494C12.6414 75.6186 12.2855 75.587 11.943 75.6583C11.6006 75.7297 11.287 75.9009 11.0418 76.1504Z" fill="white"/>
<path d="M60.2238 61.9231C60.4912 61.9233 60.7552 61.863 60.996 61.7466C61.2367 61.6302 61.448 61.4608 61.6139 61.2511C61.7799 61.0414 61.8961 60.7968 61.954 60.5357C62.0119 60.2746 62.0099 60.0038 61.9481 59.7436C61.8864 59.4835 61.7665 59.2406 61.5975 59.0334C61.4285 58.8262 61.2147 58.6599 60.9723 58.5471C60.7298 58.4343 60.4649 58.3779 60.1976 58.3821C59.9302 58.3863 59.6672 58.4509 59.4284 58.5713L59.4188 58.5761C59.0638 58.756 58.7799 59.0504 58.6128 59.4116C58.4458 59.7728 58.4054 60.1798 58.4983 60.5667C58.5911 60.9537 58.8117 61.2981 59.1244 61.5442C59.4371 61.7903 59.8237 61.9238 60.2217 61.9231H60.2238Z" fill="white"/>
</svg>
