<svg width="60" height="60" viewBox="0 0 60 60" fill="none" xmlns="http://www.w3.org/2000/svg">
<path d="M40.645 43.5482C40.6472 43.0154 40.5028 42.4923 40.2276 42.0361C39.9523 41.58 39.5569 41.2084 39.0845 40.962C38.6122 40.7156 38.0811 40.6039 37.5495 40.6392C37.0179 40.6745 36.5063 40.8554 36.0707 41.162C35.635 41.4687 35.2921 41.8893 35.0796 42.3779C34.8671 42.8664 34.7931 43.404 34.8657 43.9318C34.9383 44.4596 35.1548 44.9572 35.4913 45.3702C35.8279 45.7832 36.2716 46.0956 36.7739 46.2732V48.5657C36.1282 48.794 35.584 49.2431 35.2375 49.8339C34.8909 50.4246 34.7644 51.1188 34.8802 51.7938C34.996 52.4688 35.3467 53.0811 35.8703 53.5226C36.3939 53.964 37.0567 54.2061 37.7416 54.2061C38.4265 54.2061 39.0893 53.964 39.6129 53.5226C40.1365 53.0811 40.4872 52.4688 40.603 51.7938C40.7188 51.1188 40.5923 50.4246 40.2457 49.8339C39.8992 49.2431 39.355 48.794 38.7093 48.5657V46.2732C39.2737 46.0743 39.7628 45.7056 40.1094 45.2177C40.4559 44.7298 40.6431 44.1466 40.645 43.5482ZM37.7418 42.5803C37.9332 42.5803 38.1203 42.6371 38.2795 42.7434C38.4387 42.8498 38.5627 43.0009 38.636 43.1778C38.7092 43.3546 38.7284 43.5492 38.691 43.737C38.6537 43.9247 38.5615 44.0972 38.4262 44.2325C38.2908 44.3679 38.1184 44.4601 37.9306 44.4974C37.7429 44.5348 37.5483 44.5156 37.3714 44.4423C37.1945 44.3691 37.0434 44.245 36.937 44.0859C36.8307 43.9267 36.7739 43.7396 36.7739 43.5482C36.7743 43.2916 36.8764 43.0456 37.0578 42.8642C37.2393 42.6828 37.4852 42.5807 37.7418 42.5803ZM37.7418 52.2589C37.5504 52.2589 37.3632 52.2021 37.2041 52.0958C37.0449 51.9894 36.9209 51.8383 36.8476 51.6614C36.7743 51.4846 36.7552 51.29 36.7925 51.1022C36.8299 50.9145 36.922 50.742 37.0574 50.6067C37.1928 50.4713 37.3652 50.3791 37.553 50.3418C37.7407 50.3044 37.9353 50.3236 38.1122 50.3969C38.289 50.4701 38.4402 50.5942 38.5465 50.7533C38.6529 50.9125 38.7096 51.0996 38.7096 51.291C38.709 51.5474 38.6068 51.7931 38.4254 51.9743C38.244 52.1555 37.9982 52.2575 37.7418 52.2578V52.2589Z" fill="white"/>
<path d="M60.0002 16.0509L53.6266 9.67843H52.0802C51.9177 9.21653 51.6408 8.80336 51.2753 8.47753C50.9099 8.1517 50.4678 7.92384 49.9903 7.81527C49.5129 7.70669 49.0157 7.72093 48.5453 7.85666C48.0748 7.9924 47.6465 8.24518 47.3003 8.5914C46.954 8.93762 46.7013 9.36597 46.5655 9.83641C46.4298 10.3068 46.4155 10.804 46.5241 11.2815C46.6327 11.7589 46.8606 12.201 47.1864 12.5665C47.5122 12.932 47.9254 13.2089 48.3873 13.3713V14.517H42.9816L40.354 11.8895C40.5438 11.5023 40.6434 11.0771 40.6455 10.6459C40.6455 10.0717 40.4752 9.51042 40.1562 9.03299C39.8372 8.55555 39.3838 8.18344 38.8533 7.9637C38.3228 7.74396 37.739 7.68647 37.1759 7.79849C36.6127 7.91051 36.0954 8.18702 35.6894 8.59304C35.2833 8.99906 35.0068 9.51637 34.8948 10.0795C34.7828 10.6427 34.8403 11.2265 35.06 11.7569C35.2798 12.2874 35.6519 12.7409 36.1293 13.0599C36.6067 13.3789 37.1681 13.5492 37.7423 13.5492C38.1735 13.5471 38.5986 13.4475 38.9858 13.2577L42.1805 16.4524H48.3876V17.9881L45.0837 21.292H44.3387C44.1118 20.6465 43.6636 20.1022 43.0736 19.7556C42.4837 19.4089 41.7901 19.2824 41.1157 19.3984C40.4414 19.5143 39.8299 19.8653 39.3896 20.3891C38.9493 20.9129 38.7087 21.5756 38.7105 22.2599C38.7125 22.6898 38.8115 23.1136 39.0001 23.4999L37.9644 24.5399C37.2833 22.9964 36.1681 21.6842 34.7547 20.7631C33.3412 19.842 31.6904 19.3518 30.0033 19.3521C28.3162 19.3524 26.6655 19.8432 25.2524 20.7648C23.8392 21.6864 22.7245 22.999 22.044 24.5428L21.0001 23.4999C21.1675 23.1457 21.2612 22.7611 21.2756 22.3696C21.29 21.9781 21.2246 21.5877 21.0836 21.2222C20.9425 20.8566 20.7287 20.5236 20.4551 20.2432C20.1814 19.9628 19.8537 19.7409 19.4917 19.5909C19.1297 19.441 18.7411 19.3662 18.3493 19.3709C17.9575 19.3757 17.5708 19.4601 17.2126 19.6188C16.8544 19.7775 16.5322 20.0074 16.2655 20.2944C15.9988 20.5814 15.7932 20.9196 15.6611 21.2885H14.9168L11.6129 17.9845V13.3702C12.053 13.2184 12.4495 12.962 12.7684 12.6229C13.0874 12.2838 13.3191 11.8723 13.4436 11.4237C13.5682 10.9752 13.5818 10.5031 13.4834 10.0481C13.385 9.59317 13.1774 9.16894 12.8786 8.812L17.8215 3.87091H24.7608L29.0322 8.14271V12.1784L27.664 13.5467H25.9497C25.7214 12.901 25.2723 12.3567 24.6815 12.0102C24.0908 11.6637 23.3966 11.5371 22.7216 11.6529C22.0466 11.7687 21.4343 12.1194 20.9928 12.643C20.5514 13.1667 20.3093 13.8295 20.3093 14.5143C20.3093 15.1992 20.5514 15.862 20.9928 16.3856C21.4343 16.9092 22.0466 17.2599 22.7216 17.3758C23.3966 17.4916 24.0908 17.365 24.6815 17.0185C25.2723 16.6719 25.7214 16.1277 25.9497 15.482H28.4644L30.9669 12.9795V8.14271L35.2394 3.87091H42.7587C42.987 4.51661 43.4362 5.06082 44.0269 5.40736C44.6176 5.7539 45.3118 5.88045 45.9868 5.76465C46.6618 5.64884 47.2741 5.29814 47.7156 4.77452C48.157 4.25091 48.3991 3.58809 48.3991 2.90323C48.3991 2.21837 48.157 1.55555 47.7156 1.03193C47.2741 0.508319 46.6618 0.157616 45.9868 0.0418113C45.3118 -0.0739931 44.6176 0.0525575 44.0269 0.399096C43.4362 0.745634 42.987 1.28985 42.7587 1.93555H34.4372L30.0001 6.37342L25.5619 1.93519H17.0186L11.1615 7.79235C10.4843 7.66044 9.78236 7.77897 9.18611 8.12591C8.58986 8.47285 8.13993 9.02457 7.92002 9.67843H6.37359L0 16.0509V27.4974L2.22679 29.7242C2.03518 30.1107 1.93548 30.5363 1.93548 30.9678C1.93548 31.3992 2.03518 31.8248 2.22679 32.2114L0 34.4381V42.9814L5.40573 48.3871H7.92002C8.06476 48.7918 8.29762 49.1592 8.60176 49.4629C8.90589 49.7665 9.27371 49.9987 9.6786 50.1428V53.6246L16.0511 60H24.5944L30.0001 54.5943L35.4058 60H43.9491L50.3216 53.6264V50.1428C50.7265 49.9984 51.0942 49.7658 51.3981 49.4619C51.7021 49.1579 51.9347 48.7902 52.0791 48.3853H54.5934L60.0002 42.9814V34.4381L57.7734 32.2114C57.965 31.8248 58.0647 31.3992 58.0647 30.9678C58.0647 30.5363 57.965 30.1107 57.7734 29.7242L60.0002 27.4974V16.0509ZM36.7744 10.6449C36.7744 10.4534 36.8312 10.2663 36.9375 10.1071C37.0439 9.94798 37.195 9.82393 37.3719 9.75067C37.5487 9.67742 37.7433 9.65825 37.9311 9.6956C38.1188 9.73294 38.2913 9.82512 38.4266 9.96048C38.562 10.0958 38.6542 10.2683 38.6915 10.456C38.7289 10.6438 38.7097 10.8384 38.6364 11.0152C38.5632 11.1921 38.4391 11.3433 38.28 11.4496C38.1208 11.556 37.9337 11.6127 37.7423 11.6127C37.4857 11.6123 37.2397 11.5103 37.0583 11.3288C36.8769 11.1474 36.7748 10.9014 36.7744 10.6449ZM23.2258 15.4838C23.0344 15.4838 22.8472 15.427 22.6881 15.3207C22.5289 15.2143 22.4049 15.0632 22.3316 14.8863C22.2583 14.7095 22.2392 14.5149 22.2765 14.3271C22.3139 14.1394 22.406 13.9669 22.5414 13.8316C22.6768 13.6962 22.8492 13.604 23.037 13.5667C23.2247 13.5293 23.4193 13.5485 23.5962 13.6218C23.773 13.695 23.9242 13.8191 24.0305 13.9782C24.1369 14.1374 24.1936 14.3245 24.1936 14.5159C24.1933 14.7725 24.0912 15.0185 23.9097 15.1999C23.7283 15.3813 23.4824 15.4834 23.2258 15.4838ZM45.4841 1.93519C45.6755 1.93519 45.8626 1.99195 46.0218 2.0983C46.1809 2.20465 46.305 2.35581 46.3783 2.53267C46.4515 2.70952 46.4707 2.90412 46.4333 3.09187C46.396 3.27962 46.3038 3.45207 46.1684 3.58743C46.0331 3.72279 45.8606 3.81497 45.6729 3.85231C45.4851 3.88966 45.2905 3.87049 45.1137 3.79724C44.9368 3.72398 44.7857 3.59993 44.6793 3.44076C44.573 3.2816 44.5162 3.09447 44.5162 2.90305C44.5166 2.64647 44.6187 2.40051 44.8001 2.21909C44.9815 2.03766 45.2275 1.93557 45.4841 1.93519ZM49.3551 9.67843C49.5466 9.67843 49.7337 9.73519 49.8929 9.84154C50.052 9.94789 50.1761 10.0991 50.2493 10.2759C50.3226 10.4528 50.3418 10.6474 50.3044 10.8351C50.2671 11.0229 50.1749 11.1953 50.0395 11.3307C49.9042 11.466 49.7317 11.5582 49.544 11.5956C49.3562 11.6329 49.1616 11.6137 48.9848 11.5405C48.8079 11.4672 48.6567 11.3432 48.5504 11.184C48.444 11.0248 48.3873 10.8377 48.3873 10.6463C48.3877 10.3897 48.4898 10.1438 48.6712 9.96232C48.8526 9.7809 49.0986 9.67881 49.3551 9.67843ZM41.613 21.2902C41.8044 21.2902 41.9915 21.347 42.1507 21.4534C42.3099 21.5597 42.4339 21.7109 42.5072 21.8877C42.5804 22.0646 42.5996 22.2592 42.5622 22.4469C42.5249 22.6347 42.4327 22.8071 42.2974 22.9425C42.162 23.0778 41.9895 23.17 41.8018 23.2074C41.6141 23.2447 41.4194 23.2255 41.2426 23.1523C41.0657 23.079 40.9146 22.955 40.8082 22.7958C40.7019 22.6367 40.6451 22.4495 40.6451 22.2581C40.6455 22.0015 40.7476 21.7556 40.929 21.5741C41.1104 21.3927 41.3564 21.2906 41.613 21.2902ZM23.279 27.206C23.4738 25.706 24.1636 24.314 25.239 23.2504C26.3145 22.1869 27.7141 21.5126 29.2162 21.3345C29.4793 21.3048 29.7439 21.2899 30.0087 21.2899C31.6726 21.2846 33.2788 21.8991 34.5144 23.0135C35.2068 23.6312 35.7647 24.3848 36.1532 25.2275C36.5417 26.0702 36.7526 26.9838 36.7727 27.9115C36.7928 28.8392 36.6217 29.7611 36.27 30.6198C35.9184 31.4785 35.3937 32.2557 34.7287 32.9028H30.9679V30.7896C31.6136 30.5613 32.1579 30.1121 32.5044 29.5214C32.8509 28.9307 32.9775 28.2364 32.8617 27.5614C32.7459 26.8864 32.3952 26.2741 31.8716 25.8327C31.3479 25.3912 30.6851 25.1491 30.0003 25.1491C29.3154 25.1491 28.6526 25.3912 28.129 25.8327C27.6054 26.2741 27.2547 26.8864 27.1388 27.5614C27.023 28.2364 27.1496 28.9307 27.4961 29.5214C27.8427 30.1121 28.3869 30.5613 29.0326 30.7896V32.9031H25.2794C24.527 32.1737 23.9546 31.2792 23.6074 30.2904C23.2603 29.3017 23.1478 28.2457 23.279 27.206ZM30.0001 46.4514C29.8087 46.4514 29.6215 46.3946 29.4624 46.2883C29.3032 46.1819 29.1792 46.0308 29.1059 45.8539C29.0326 45.6771 29.0135 45.4825 29.0508 45.2947C29.0882 45.107 29.1803 44.9345 29.3157 44.7992C29.4511 44.6638 29.6235 44.5716 29.8113 44.5343C29.999 44.4969 30.1936 44.5161 30.3705 44.5893C30.5473 44.6626 30.6985 44.7867 30.8048 44.9458C30.9112 45.105 30.9679 45.2921 30.9679 45.4835C30.9676 45.7401 30.8655 45.9861 30.6841 46.1675C30.5026 46.3489 30.2567 46.451 30.0001 46.4514ZM27.0969 38.7096C26.8403 38.7092 26.5943 38.6071 26.4129 38.4257C26.2315 38.2443 26.1294 37.9983 26.129 37.7417V34.8385H33.8712V37.7417C33.8708 37.9983 33.7687 38.2443 33.5873 38.4257C33.4058 38.6071 33.1599 38.7092 32.9033 38.7096H27.0969ZM29.0322 28.0646C29.0322 27.8731 29.0889 27.686 29.1952 27.5267C29.3015 27.3675 29.4526 27.2434 29.6295 27.1701C29.8063 27.0968 30.0009 27.0776 30.1887 27.1149C30.3765 27.1522 30.549 27.2443 30.6843 27.3797C30.8197 27.515 30.9119 27.6875 30.9493 27.8752C30.9867 28.063 30.9676 28.2576 30.8943 28.4345C30.8211 28.6114 30.697 28.7626 30.5378 28.8689C30.3787 28.9753 30.1915 29.0321 30.0001 29.0321C29.7436 29.0317 29.4977 28.9296 29.3162 28.7483C29.1348 28.5669 29.0327 28.3211 29.0322 28.0646ZM18.3872 21.2902C18.5786 21.2902 18.7657 21.347 18.9249 21.4534C19.0841 21.5597 19.2081 21.7109 19.2814 21.8877C19.3546 22.0646 19.3738 22.2592 19.3365 22.4469C19.2991 22.6347 19.2069 22.8071 19.0716 22.9425C18.9362 23.0778 18.7638 23.17 18.576 23.2074C18.3883 23.2447 18.1937 23.2255 18.0168 23.1523C17.84 23.079 17.6888 22.955 17.5825 22.7958C17.4761 22.6367 17.4193 22.4495 17.4193 22.2581C17.4197 22.0015 17.5218 21.7556 17.7032 21.5741C17.8847 21.3927 18.1306 21.2906 18.3872 21.2902ZM10.645 9.67843C10.8365 9.67843 11.0236 9.73519 11.1827 9.84154C11.3419 9.94789 11.466 10.0991 11.5392 10.2759C11.6125 10.4528 11.6316 10.6474 11.5943 10.8351C11.5569 11.0229 11.4648 11.1953 11.3294 11.3307C11.1941 11.466 11.0216 11.5582 10.8339 11.5956C10.6461 11.6329 10.4515 11.6137 10.2746 11.5405C10.0978 11.4672 9.94664 11.3432 9.84029 11.184C9.73394 11.0248 9.67717 10.8377 9.67717 10.6463C9.67755 10.3897 9.77964 10.1438 9.96107 9.96232C10.1425 9.7809 10.3885 9.67881 10.645 9.67843ZM4.83859 31.9353C4.64716 31.9353 4.46004 31.8785 4.30087 31.7722C4.14171 31.6658 4.01765 31.5147 3.9444 31.3378C3.87114 31.1609 3.85198 30.9663 3.88932 30.7786C3.92667 30.5909 4.01885 30.4184 4.15421 30.283C4.28956 30.1477 4.46202 30.0555 4.64977 30.0182C4.83751 29.9808 5.03212 30 5.20897 30.0732C5.38582 30.1465 5.53698 30.2705 5.64333 30.4297C5.74968 30.5889 5.80645 30.776 5.80645 30.9674C5.80607 31.224 5.70398 31.47 5.52255 31.6514C5.34112 31.8328 5.09516 31.9349 4.83859 31.9353ZM9.6786 47.4193C9.6786 47.2278 9.73536 47.0407 9.84171 46.8815C9.94806 46.7224 10.0992 46.5983 10.2761 46.5251C10.4529 46.4518 10.6475 46.4326 10.8353 46.47C11.023 46.5073 11.1955 46.5995 11.3308 46.7349C11.4662 46.8702 11.5584 47.0427 11.5957 47.2304C11.6331 47.4182 11.6139 47.6128 11.5406 47.7896C11.4674 47.9665 11.3433 48.1176 11.1842 48.224C11.025 48.3303 10.8379 48.3871 10.6465 48.3871C10.3899 48.3867 10.1439 48.2846 9.9625 48.1032C9.78107 47.9218 9.67898 47.6758 9.6786 47.4193ZM23.7929 58.0646H16.8522L11.6129 52.8253V50.1428C12.0748 49.9804 12.488 49.7035 12.8138 49.338C13.1396 48.9725 13.3675 48.5304 13.4761 48.053C13.5846 47.5756 13.5704 47.0784 13.4347 46.6079C13.2989 46.1375 13.0461 45.7092 12.6999 45.3629C12.3537 45.0167 11.9253 44.7639 11.4549 44.6282C10.9845 44.4925 10.4873 44.4782 10.0099 44.5868C9.53242 44.6954 9.09031 44.9232 8.72483 45.2491C8.35936 45.5749 8.08246 45.9881 7.92002 46.45H6.20573L1.93536 42.1785V35.2392L3.59501 33.5796C3.98156 33.7712 4.40715 33.8709 4.83859 33.8709C5.27002 33.8709 5.69561 33.7712 6.08216 33.5796L9.27681 36.7742H11.7911C12.0194 37.4199 12.4686 37.9641 13.0593 38.3107C13.65 38.6572 14.3442 38.7838 15.0192 38.668C15.6942 38.5522 16.3066 38.2015 16.748 37.6778C17.1894 37.1542 17.4315 36.4914 17.4315 35.8065C17.4315 35.1217 17.1894 34.4589 16.748 33.9352C16.3066 33.4116 15.6942 33.0609 15.0192 32.9451C14.3442 32.8293 13.65 32.9559 13.0593 33.3024C12.4686 33.6489 12.0194 34.1932 11.7911 34.8389H10.0768L7.44931 32.2114C7.63905 31.8241 7.73868 31.399 7.74074 30.9678C7.73979 30.1981 7.43361 29.4602 6.88936 28.9159C6.3451 28.3717 5.60721 28.0655 4.83751 28.0646C4.40631 28.0666 3.98116 28.1662 3.59394 28.356L1.93536 26.696V16.852L7.17466 11.6127H7.91967C8.06422 12.0177 8.29703 12.3856 8.60124 12.6895C8.90546 12.9935 9.27346 13.226 9.6786 13.3702V18.7877L14.1154 23.2256H15.6618C15.8608 23.79 16.2295 24.279 16.7174 24.6255C17.2053 24.972 17.7884 25.159 18.3868 25.161C18.818 25.1589 19.2432 25.0593 19.6304 24.8695L21.4101 26.6492C21.3926 26.7563 21.3693 26.861 21.3568 26.9706C21.1789 28.3695 21.3442 29.7906 21.8383 31.1113C22.3325 32.432 23.1408 33.6126 24.1933 34.551V37.7428C24.1942 38.5125 24.5004 39.2504 25.0447 39.7946C25.5889 40.3389 26.3268 40.6451 27.0965 40.646H29.0322V42.7596C28.4668 42.957 27.9768 43.3253 27.6301 43.8136C27.2833 44.3019 27.097 44.8859 27.097 45.4848C27.097 46.0837 27.2833 46.6677 27.6301 47.156C27.9768 47.6443 28.4668 48.0126 29.0322 48.21V52.825L23.7929 58.0646ZM13.5483 35.8064C13.5483 35.6149 13.605 35.4278 13.7114 35.2686C13.8177 35.1095 13.9689 34.9854 14.1457 34.9122C14.3226 34.8389 14.5172 34.8198 14.7049 34.8571C14.8927 34.8944 15.0651 34.9866 15.2005 35.122C15.3359 35.2573 15.428 35.4298 15.4654 35.6175C15.5027 35.8053 15.4836 35.9999 15.4103 36.1767C15.337 36.3536 15.213 36.5048 15.0538 36.6111C14.8947 36.7175 14.7075 36.7742 14.5161 36.7742C14.2595 36.7738 14.0136 36.6718 13.8322 36.4903C13.6507 36.3089 13.5486 36.0629 13.5483 35.8064ZM49.3548 48.3871C49.1634 48.3871 48.9762 48.3303 48.8171 48.224C48.6579 48.1176 48.5339 47.9665 48.4606 47.7896C48.3873 47.6128 48.3682 47.4182 48.4055 47.2304C48.4429 47.0427 48.535 46.8702 48.6704 46.7349C48.8058 46.5995 48.9782 46.5073 49.166 46.47C49.3537 46.4326 49.5483 46.4518 49.7252 46.5251C49.902 46.5983 50.0532 46.7224 50.1595 46.8815C50.2659 47.0407 50.3226 47.2278 50.3226 47.4193C50.3223 47.6758 50.2202 47.9217 50.0389 48.1031C49.8575 48.2845 49.6117 48.3866 49.3551 48.3871H49.3548ZM54.1937 30.9678C54.1937 30.7764 54.2505 30.5892 54.3568 30.4301C54.4632 30.2709 54.6144 30.1468 54.7912 30.0736C54.9681 30.0003 55.1627 29.9812 55.3504 30.0185C55.5382 30.0559 55.7106 30.148 55.846 30.2834C55.9813 30.4188 56.0735 30.5912 56.1109 30.779C56.1482 30.9667 56.129 31.1613 56.0558 31.3382C55.9825 31.515 55.8585 31.6662 55.6993 31.7725C55.5401 31.8789 55.353 31.9356 55.1616 31.9356C54.905 31.9353 54.6591 31.8332 54.4776 31.6517C54.2962 31.4703 54.1941 31.2244 54.1937 30.9678ZM58.0648 26.696L56.4052 28.3571C56.0179 28.1673 55.5928 28.0677 55.1616 28.0656C54.3919 28.0666 53.654 28.3727 53.1097 28.917C52.5655 29.4613 52.2593 30.1992 52.2584 30.9688C52.2604 31.4001 52.3601 31.8252 52.5498 32.2124L49.9223 34.8399H48.208C47.9797 34.1942 47.5305 33.65 46.9398 33.3035C46.3491 32.9569 45.6549 32.8304 44.9799 32.9462C44.3049 33.062 43.6926 33.4127 43.2511 33.9363C42.8097 34.4599 42.5676 35.1227 42.5676 35.8076C42.5676 36.4925 42.8097 37.1553 43.2511 37.6789C43.6926 38.2025 44.3049 38.5532 44.9799 38.669C45.6549 38.7848 46.3491 38.6583 46.9398 38.3117C47.5305 37.9652 47.9797 37.421 48.208 36.7753H50.7223L53.9169 33.5806C54.3035 33.7723 54.7291 33.872 55.1605 33.872C55.592 33.872 56.0175 33.7723 56.4041 33.5806L58.0637 35.2403V42.1785L53.793 46.4514H52.0787C51.9163 45.9895 51.6394 45.5763 51.2739 45.2505C50.9084 44.9247 50.4663 44.6968 49.9889 44.5882C49.5115 44.4797 49.0143 44.4939 48.5438 44.6296C48.0734 44.7654 47.6451 45.0182 47.2988 45.3644C46.9526 45.7106 46.6998 46.1389 46.5641 46.6094C46.4284 47.0798 46.4141 47.577 46.5227 48.0544C46.6313 48.5319 46.8591 48.974 47.185 49.3395C47.5108 49.7049 47.924 49.9818 48.3859 50.1443V52.825L43.1466 58.0643H36.2072L30.9679 52.825V48.2089C31.5334 48.0115 32.0234 47.6432 32.3701 47.1549C32.7169 46.6666 32.9031 46.0826 32.9031 45.4837C32.9031 44.8848 32.7169 44.3008 32.3701 43.8125C32.0234 43.3242 31.5334 42.9559 30.9679 42.7585V40.6449H32.9033C33.673 40.644 34.4109 40.3378 34.9552 39.7936C35.4994 39.2493 35.8056 38.5114 35.8065 37.7417V34.5514C36.9062 33.5829 37.739 32.3485 38.2251 30.9662C38.7112 29.5839 38.8344 28.0999 38.583 26.6563L40.3687 24.8706C40.7559 25.0604 41.1811 25.16 41.6123 25.162C42.2107 25.1601 42.7938 24.9731 43.2817 24.6266C43.7696 24.28 44.1383 23.7911 44.3373 23.2267H45.8837L50.3216 18.7877V13.3702C50.7265 13.2258 51.0942 12.9932 51.3981 12.6893C51.7021 12.3853 51.9347 12.0176 52.0791 11.6127H52.8241L58.0634 16.852L58.0648 26.696ZM46.4519 35.8064C46.4519 35.9978 46.3952 36.1849 46.2888 36.3441C46.1825 36.5032 46.0313 36.6273 45.8544 36.7005C45.6776 36.7738 45.483 36.793 45.2952 36.7556C45.1075 36.7183 44.935 36.6261 44.7997 36.4907C44.6643 36.3554 44.5721 36.1829 44.5348 35.9952C44.4975 35.8074 44.5166 35.6128 44.5899 35.436C44.6631 35.2591 44.7872 35.108 44.9463 35.0016C45.1055 34.8953 45.2926 34.8385 45.4841 34.8385C45.7406 34.839 45.9864 34.9411 46.1678 35.1225C46.3491 35.3039 46.4512 35.5499 46.4516 35.8064H46.4519Z" fill="white"/>
<path d="M22.2582 40.6445C21.5739 40.6428 20.9112 40.8834 20.3874 41.3237C19.8636 41.7639 19.5126 42.3754 19.3967 43.0498C19.2807 43.7241 19.4072 44.4178 19.7539 45.0077C20.1005 45.5977 20.6448 46.0458 21.2903 46.2728V47.0178L19.6307 48.6774C19.2435 48.4877 18.8183 48.388 18.3871 48.386C17.8129 48.386 17.2516 48.5563 16.7742 48.8753C16.2967 49.1943 15.9246 49.6477 15.7049 50.1782C15.4851 50.7087 15.4277 51.2924 15.5397 51.8556C15.6517 52.4188 15.9282 52.9361 16.3342 53.3421C16.7402 53.7481 17.2575 54.0246 17.8207 54.1367C18.3839 54.2487 18.9676 54.1912 19.4981 53.9714C20.0286 53.7517 20.482 53.3796 20.8011 52.9022C21.1201 52.4247 21.2903 51.8634 21.2903 51.2892C21.2883 50.858 21.1886 50.4329 20.9989 50.0456L23.2257 47.8188V46.2724C23.8709 46.0453 24.4149 45.5971 24.7614 45.0073C25.1078 44.4175 25.2343 43.7241 25.1184 43.0499C25.0025 42.3758 24.6517 41.7644 24.1282 41.3242C23.6047 40.8839 22.9422 40.6431 22.2582 40.6445ZM18.3871 52.2574C18.1957 52.2574 18.0086 52.2007 17.8494 52.0943C17.6902 51.988 17.5662 51.8368 17.4929 51.66C17.4197 51.4831 17.4005 51.2885 17.4378 51.1008C17.4752 50.913 17.5674 50.7405 17.7027 50.6052C17.8381 50.4698 18.0105 50.3777 18.1983 50.3403C18.386 50.303 18.5806 50.3221 18.7575 50.3954C18.9343 50.4686 19.0855 50.5927 19.1919 50.7519C19.2982 50.911 19.355 51.0981 19.355 51.2896C19.3546 51.5461 19.2525 51.7921 19.0711 51.9735C18.8896 52.155 18.6437 52.2571 18.3871 52.2574ZM22.2582 44.5156C22.0668 44.5156 21.8796 44.4589 21.7205 44.3525C21.5613 44.2462 21.4373 44.095 21.364 43.9181C21.2908 43.7413 21.2716 43.5467 21.3089 43.3589C21.3463 43.1712 21.4385 42.9987 21.5738 42.8634C21.7092 42.728 21.8816 42.6358 22.0694 42.5985C22.2571 42.5612 22.4517 42.5803 22.6286 42.6536C22.8054 42.7268 22.9566 42.8509 23.0629 43.01C23.1693 43.1692 23.2261 43.3563 23.2261 43.5478C23.2257 43.8043 23.1236 44.0503 22.9422 44.2317C22.7607 44.4132 22.5148 44.5152 22.2582 44.5156Z" fill="white"/>
</svg>
