<svg width="90" height="90" viewBox="0 0 90 90" fill="none" xmlns="http://www.w3.org/2000/svg">
<path d="M74.5313 46.0742L66.631 61.8748H73.1251V77.3436H52.0313V70.8495L36.2307 78.7498L52.0313 86.6501V80.1561H75.9376V61.8748H82.4316L74.5313 46.0742ZM49.2188 82.0995L42.5195 78.7498L49.2188 75.4001V82.0995ZM74.5313 52.363L77.881 59.0623H71.1816L74.5313 52.363Z" fill="white"/>
<path d="M12.6562 74.5312H29.5312V77.3438H12.6562V74.5312Z" fill="white"/>
<path d="M12.6562 80.1562H29.5312V82.9688H12.6562V80.1562Z" fill="white"/>
<path d="M60.4688 23.9062V32.3438H46.4062V21.0938H59.0625V1.40625H30.9375V21.0938H43.5938V32.3438H29.5312V23.9062H1.40625V43.5938H14.0625V57.6562H19.6875V68.9062H7.03125V88.5938H35.1562V68.9062H22.5V57.6562H35.1562V63.2812H60.4688V49.2188H35.1562V54.8438H16.875V43.5938H29.5312V35.1562H60.4688V43.5938H88.5938V23.9062H60.4688ZM33.75 4.21875H56.25V18.2812H33.75V4.21875ZM32.3438 85.7812H9.84375V71.7188H32.3438V85.7812ZM37.9688 52.0312H57.6562V60.4688H37.9688V52.0312ZM26.7188 40.7812H4.21875V26.7188H26.7188V40.7812ZM85.7812 40.7812H63.2812V26.7188H85.7812V40.7812Z" fill="white"/>
<path d="M66.0938 29.5312H82.9688V32.3438H66.0938V29.5312Z" fill="white"/>
<path d="M66.0938 35.1562H82.9688V37.9688H66.0938V35.1562Z" fill="white"/>
<path d="M7.03125 29.5312H23.9062V32.3438H7.03125V29.5312Z" fill="white"/>
<path d="M7.03125 35.1562H23.9062V37.9688H7.03125V35.1562Z" fill="white"/>
<path d="M36.5625 7.03125H53.4375V9.84375H36.5625V7.03125Z" fill="white"/>
<path d="M36.5625 12.6562H53.4375V15.4688H36.5625V12.6562Z" fill="white"/>
<path d="M46.4062 54.8438H49.2188V57.6562H46.4062V54.8438Z" fill="white"/>
<path d="M40.7812 54.8438H43.5938V57.6562H40.7812V54.8438Z" fill="white"/>
<path d="M52.0312 54.8438H54.8438V57.6562H52.0312V54.8438Z" fill="white"/>
</svg>
